<?xml version="1.0" encoding="UTF-8"?>
<!DOCTYPE svg PUBLIC "-//W3C//DTD SVG 1.1//EN" "http://www.w3.org/Graphics/SVG/1.1/DTD/svg11.dtd">
<svg xmlns="http://www.w3.org/2000/svg" version="1.1" width="456px" height="456px" style="shape-rendering:geometricPrecision; text-rendering:geometricPrecision; image-rendering:optimizeQuality; fill-rule:evenodd; clip-rule:evenodd" xmlns:xlink="http://www.w3.org/1999/xlink">
<g><path style="opacity:1" fill="#fefefe" d="M -0.5,-0.5 C 151.5,-0.5 303.5,-0.5 455.5,-0.5C 455.5,151.5 455.5,303.5 455.5,455.5C 303.5,455.5 151.5,455.5 -0.5,455.5C -0.5,303.5 -0.5,151.5 -0.5,-0.5 Z"/></g>
<g><path style="opacity:1" fill="#424a69" d="M 250.5,100.5 C 254.063,102.423 257.896,104.09 262,105.5C 264,106.167 264,106.833 262,107.5C 248.336,102.834 234.669,98.1671 221,93.5C 216.708,95.542 212.208,96.8753 207.5,97.5C 212.227,94.6416 217.393,92.6416 223,91.5C 232.541,93.6698 241.708,96.6698 250.5,100.5 Z"/></g>
<g><path style="opacity:1" fill="#28375a" d="M 250.5,100.5 C 261.02,102.621 271.02,105.955 280.5,110.5C 283.269,111.709 285.769,113.376 288,115.5C 288.414,115.043 288.914,114.709 289.5,114.5C 290.216,115.311 291.05,115.978 292,116.5C 294.862,117.028 297.696,117.695 300.5,118.5C 300.023,119.478 299.357,120.311 298.5,121C 300.283,121.232 301.95,120.732 303.5,119.5C 304.966,120.135 306.3,120.969 307.5,122C 306.264,123.085 304.931,123.918 303.5,124.5C 301.723,124.214 300.056,123.547 298.5,122.5C 296.109,123.191 296.109,124.191 298.5,125.5C 298.167,125.833 297.833,126.167 297.5,126.5C 295.5,125.167 293.5,125.167 291.5,126.5C 286.644,125.007 281.644,124.007 276.5,123.5C 275.829,122.054 274.662,121.388 273,121.5C 271.177,121.887 269.343,122.221 267.5,122.5C 260.869,121.089 254.702,118.756 249,115.5C 248.586,115.957 248.086,116.291 247.5,116.5C 233.235,114.067 218.901,113.9 204.5,116C 189.212,121.244 173.878,126.577 158.5,132C 154.167,132.167 149.833,132.333 145.5,132.5C 140.778,132.492 136.445,131.825 132.5,130.5C 135.805,127.351 139.805,125.517 144.5,125C 165.343,115.379 186.343,106.212 207.5,97.5C 212.208,96.8753 216.708,95.542 221,93.5C 234.669,98.1671 248.336,102.834 262,107.5C 264,106.833 264,106.167 262,105.5C 257.896,104.09 254.063,102.423 250.5,100.5 Z"/></g>
<g><path style="opacity:1" fill="#352f40" d="M 280.5,110.5 C 287.731,111.966 294.731,114.133 301.5,117C 304.793,117.826 308.126,118.326 311.5,118.5C 311.5,119.833 311.5,121.167 311.5,122.5C 311.5,123.167 311.5,123.833 311.5,124.5C 306.353,126.627 301.02,128.461 295.5,130C 293.109,131.309 293.109,132.309 295.5,133C 293.975,134.009 292.308,134.509 290.5,134.5C 291.66,132.797 290.993,132.131 288.5,132.5C 293.322,129.452 298.322,126.786 303.5,124.5C 304.931,123.918 306.264,123.085 307.5,122C 306.3,120.969 304.966,120.135 303.5,119.5C 301.95,120.732 300.283,121.232 298.5,121C 299.357,120.311 300.023,119.478 300.5,118.5C 297.696,117.695 294.862,117.028 292,116.5C 291.05,115.978 290.216,115.311 289.5,114.5C 288.914,114.709 288.414,115.043 288,115.5C 285.769,113.376 283.269,111.709 280.5,110.5 Z"/></g>
<g><path style="opacity:1" fill="#71c0d7" d="M 311.5,124.5 C 311.5,123.833 311.5,123.167 311.5,122.5C 312.268,121.737 312.768,120.737 313,119.5C 314.123,122.956 313.29,125.79 310.5,128C 305.813,129.083 301.48,130.916 297.5,133.5C 297.167,133.167 296.833,132.833 296.5,132.5C 301.738,130.205 306.738,127.538 311.5,124.5 Z"/></g>
<g><path style="opacity:1" fill="#232d4d" d="M 303.5,124.5 C 298.322,126.786 293.322,129.452 288.5,132.5C 284.466,134.737 280.132,136.404 275.5,137.5C 273.833,137.5 272.167,137.5 270.5,137.5C 270.766,133.429 270.433,129.429 269.5,125.5C 240.282,117.189 211.282,117.689 182.5,127C 181.142,127.934 179.808,128.768 178.5,129.5C 174.435,128.578 172.102,130.078 171.5,134C 171.439,136.261 172.106,138.261 173.5,140C 169.514,140.499 165.514,140.666 161.5,140.5C 156.058,139.927 150.724,138.927 145.5,137.5C 140.939,136.093 136.272,135.093 131.5,134.5C 131.5,133.5 131.5,132.5 131.5,131.5C 131.5,130.833 131.833,130.5 132.5,130.5C 136.445,131.825 140.778,132.492 145.5,132.5C 149.833,132.333 154.167,132.167 158.5,132C 173.878,126.577 189.212,121.244 204.5,116C 218.901,113.9 233.235,114.067 247.5,116.5C 248.086,116.291 248.586,115.957 249,115.5C 254.702,118.756 260.869,121.089 267.5,122.5C 269.343,122.221 271.177,121.887 273,121.5C 274.662,121.388 275.829,122.054 276.5,123.5C 281.644,124.007 286.644,125.007 291.5,126.5C 293.5,125.167 295.5,125.167 297.5,126.5C 297.833,126.167 298.167,125.833 298.5,125.5C 296.109,124.191 296.109,123.191 298.5,122.5C 300.056,123.547 301.723,124.214 303.5,124.5 Z"/></g>
<g><path style="opacity:1" fill="#271e2e" d="M 275.5,137.5 C 274.833,138.167 274.167,138.833 273.5,139.5C 272.167,139.5 270.833,139.5 269.5,139.5C 269.933,142.166 270.433,144.832 271,147.5C 271.417,148.756 272.25,149.423 273.5,149.5C 273.842,150.338 274.508,150.672 275.5,150.5C 274.432,151.434 273.099,151.768 271.5,151.5C 271.167,151.5 270.833,151.5 270.5,151.5C 268.64,143.671 267.973,135.671 268.5,127.5C 253.614,125.23 238.614,123.564 223.5,122.5C 214.445,122.795 205.445,123.628 196.5,125C 190.679,126.991 184.679,128.491 178.5,129.5C 179.808,128.768 181.142,127.934 182.5,127C 211.282,117.689 240.282,117.189 269.5,125.5C 270.433,129.429 270.766,133.429 270.5,137.5C 272.167,137.5 273.833,137.5 275.5,137.5 Z"/></g>
<g><path style="opacity:1" fill="#293a60" d="M 270.5,151.5 C 262.787,151.45 255.121,150.783 247.5,149.5C 242.588,149.421 237.921,150.088 233.5,151.5C 232.833,151.5 232.167,151.5 231.5,151.5C 228.47,151.908 225.47,152.574 222.5,153.5C 213.628,151.53 204.628,151.03 195.5,152C 194.584,152.278 193.918,152.778 193.5,153.5C 192.508,153.328 191.842,153.662 191.5,154.5C 185.5,154.5 179.5,154.5 173.5,154.5C 173.5,153.5 173.5,152.5 173.5,151.5C 174.341,149.621 174.675,147.621 174.5,145.5C 175.664,142.16 175.664,138.66 174.5,135C 175.55,132.971 176.884,131.137 178.5,129.5C 184.679,128.491 190.679,126.991 196.5,125C 205.445,123.628 214.445,122.795 223.5,122.5C 238.614,123.564 253.614,125.23 268.5,127.5C 267.973,135.671 268.64,143.671 270.5,151.5 Z"/></g>
<g><path style="opacity:1" fill="#6088ba" d="M 290.5,134.5 C 288.351,135.736 286.018,136.736 283.5,137.5C 285.176,135.166 287.509,134.166 290.5,134.5 Z"/></g>
<g><path style="opacity:1" fill="#261c2b" d="M 178.5,129.5 C 176.884,131.137 175.55,132.971 174.5,135C 175.664,138.66 175.664,142.16 174.5,145.5C 170.476,143.43 166.143,142.097 161.5,141.5C 161.5,141.167 161.5,140.833 161.5,140.5C 165.514,140.666 169.514,140.499 173.5,140C 172.106,138.261 171.439,136.261 171.5,134C 172.102,130.078 174.435,128.578 178.5,129.5 Z"/></g>
<g><path style="opacity:1" fill="#d9ab47" d="M 131.5,131.5 C 131.5,132.5 131.5,133.5 131.5,134.5C 130.679,140.857 129.679,147.19 128.5,153.5C 128.334,147.158 128.5,140.825 129,134.5C 129.377,133.058 130.21,132.058 131.5,131.5 Z"/></g>
<g><path style="opacity:1" fill="#78c6d6" d="M 145.5,137.5 C 150.724,138.927 156.058,139.927 161.5,140.5C 161.5,140.833 161.5,141.167 161.5,141.5C 160.312,142.364 159.145,143.364 158,144.5C 156.67,143.418 155.17,142.751 153.5,142.5C 151.219,142.923 149.552,142.256 148.5,140.5C 147.328,139.295 145.995,139.295 144.5,140.5C 143.478,140.145 142.811,139.478 142.5,138.5C 143.791,138.737 144.791,138.404 145.5,137.5 Z"/></g>
<g><path style="opacity:1" fill="#bbd2dc" d="M 288.5,132.5 C 290.993,132.131 291.66,132.797 290.5,134.5C 287.509,134.166 285.176,135.166 283.5,137.5C 281.763,139.88 279.43,141.547 276.5,142.5C 276.062,145.295 275.062,147.628 273.5,149.5C 272.25,149.423 271.417,148.756 271,147.5C 270.433,144.832 269.933,142.166 269.5,139.5C 270.833,139.5 272.167,139.5 273.5,139.5C 274.167,138.833 274.833,138.167 275.5,137.5C 280.132,136.404 284.466,134.737 288.5,132.5 Z"/></g>
<g><path style="opacity:1" fill="#5a83b6" d="M 273.5,139.5 C 278.421,139.847 278.254,140.847 273,142.5C 272.667,143.833 272.333,145.167 272,146.5C 271.185,143.802 271.685,141.468 273.5,139.5 Z"/></g>
<g><path style="opacity:1" fill="#d8cdca" d="M 300.5,144.5 C 300.829,147.228 300.163,149.562 298.5,151.5C 298.41,148.848 299.076,146.515 300.5,144.5 Z"/></g>
<g><path style="opacity:1" fill="#50bfd6" d="M 300.5,139.5 C 301.748,140.334 302.415,141.667 302.5,143.5C 301.497,148.843 300.497,154.176 299.5,159.5C 298.662,159.158 298.328,158.492 298.5,157.5C 298.5,157.167 298.5,156.833 298.5,156.5C 298.5,154.833 298.5,153.167 298.5,151.5C 300.163,149.562 300.829,147.228 300.5,144.5C 300.5,142.833 300.5,141.167 300.5,139.5 Z"/></g>
<g><path style="opacity:1" fill="#522412" d="M 300.5,139.5 C 300.5,141.167 300.5,142.833 300.5,144.5C 299.076,146.515 298.41,148.848 298.5,151.5C 297.521,152.765 296.521,154.099 295.5,155.5C 296.325,156.386 297.325,156.719 298.5,156.5C 298.5,156.833 298.5,157.167 298.5,157.5C 295.524,161.952 292.191,166.118 288.5,170C 290.278,174.902 292.611,179.402 295.5,183.5C 295.328,184.492 295.662,185.158 296.5,185.5C 298.217,191.487 300.217,197.32 302.5,203C 302.811,215.846 298.811,227.013 290.5,236.5C 288.656,237.204 288.156,238.537 289,240.5C 292.697,245.685 296.53,250.685 300.5,255.5C 300.5,256.167 300.5,256.833 300.5,257.5C 296.493,253.463 292.493,249.463 288.5,245.5C 286.338,243.358 285.338,240.691 285.5,237.5C 288.479,235.188 291.146,232.521 293.5,229.5C 296.048,226.451 296.714,223.118 295.5,219.5C 296.325,218.614 297.325,218.281 298.5,218.5C 298.906,210.083 298.406,201.749 297,193.5C 293.508,185.26 289.508,177.26 285,169.5C 283.644,170.38 282.144,170.714 280.5,170.5C 278.393,169.532 276.059,169.198 273.5,169.5C 273.369,168.624 273.702,167.957 274.5,167.5C 288.024,163.434 295.69,154.434 297.5,140.5C 298.209,139.596 299.209,139.263 300.5,139.5 Z"/></g>
<g><path style="opacity:1" fill="#e1d7d2" d="M 298.5,151.5 C 298.5,153.167 298.5,154.833 298.5,156.5C 297.325,156.719 296.325,156.386 295.5,155.5C 296.521,154.099 297.521,152.765 298.5,151.5 Z"/></g>
<g><path style="opacity:1" fill="#9b5b2c" d="M 147.5,140.5 C 147.833,140.5 148.167,140.5 148.5,140.5C 149.552,142.256 151.219,142.923 153.5,142.5C 159.211,147.413 165.878,150.413 173.5,151.5C 173.5,152.5 173.5,153.5 173.5,154.5C 179.5,154.5 185.5,154.5 191.5,154.5C 201.343,154.955 211.177,155.622 221,156.5C 227.925,155.251 234.925,154.251 242,153.5C 251.817,154.311 261.651,154.644 271.5,154.5C 271.5,153.5 271.5,152.5 271.5,151.5C 273.099,151.768 274.432,151.434 275.5,150.5C 277.199,150.66 278.866,150.494 280.5,150C 286.226,146.807 291.892,143.64 297.5,140.5C 295.69,154.434 288.024,163.434 274.5,167.5C 273.702,167.957 273.369,168.624 273.5,169.5C 267.013,169.152 260.68,169.818 254.5,171.5C 256.121,169.883 258.121,168.716 260.5,168C 265.385,166.289 270.385,164.955 275.5,164C 272.986,162.748 270.32,162.248 267.5,162.5C 280.726,159.441 280.226,157.441 266,156.5C 247.323,156.162 233.323,163.829 224,179.5C 217.448,167.301 207.281,160.134 193.5,158C 186.144,156.092 178.81,156.092 171.5,158C 171.167,158.333 170.833,158.667 170.5,159C 172.431,159.902 174.097,161.069 175.5,162.5C 174.234,163.09 172.901,163.59 171.5,164C 177.373,165.57 183.04,167.403 188.5,169.5C 183.5,169.5 178.5,169.5 173.5,169.5C 170.186,167.228 166.519,165.395 162.5,164C 153.748,158.539 148.748,150.706 147.5,140.5 Z"/></g>
<g><path style="opacity:1" fill="#7e4420" d="M 231.5,151.5 C 232.167,151.5 232.833,151.5 233.5,151.5C 243.409,151.263 253.243,151.93 263,153.5C 265.929,153.475 268.429,152.809 270.5,151.5C 270.833,151.5 271.167,151.5 271.5,151.5C 271.5,152.5 271.5,153.5 271.5,154.5C 261.651,154.644 251.817,154.311 242,153.5C 234.925,154.251 227.925,155.251 221,156.5C 211.177,155.622 201.343,154.955 191.5,154.5C 191.842,153.662 192.508,153.328 193.5,153.5C 203.184,153.341 212.85,153.675 222.5,154.5C 224.5,154.333 226.5,154.167 228.5,154C 229.942,153.623 230.942,152.79 231.5,151.5 Z"/></g>
<g><path style="opacity:1" fill="#371918" d="M 231.5,151.5 C 230.942,152.79 229.942,153.623 228.5,154C 226.5,154.167 224.5,154.333 222.5,154.5C 212.85,153.675 203.184,153.341 193.5,153.5C 193.918,152.778 194.584,152.278 195.5,152C 204.628,151.03 213.628,151.53 222.5,153.5C 225.47,152.574 228.47,151.908 231.5,151.5 Z"/></g>
<g><path style="opacity:1" fill="#351819" d="M 270.5,151.5 C 268.429,152.809 265.929,153.475 263,153.5C 253.243,151.93 243.409,151.263 233.5,151.5C 237.921,150.088 242.588,149.421 247.5,149.5C 255.121,150.783 262.787,151.45 270.5,151.5 Z"/></g>
<g><path style="opacity:1" fill="#f1f2f2" d="M 161.5,141.5 C 166.143,142.097 170.476,143.43 174.5,145.5C 174.675,147.621 174.341,149.621 173.5,151.5C 165.878,150.413 159.211,147.413 153.5,142.5C 155.17,142.751 156.67,143.418 158,144.5C 159.145,143.364 160.312,142.364 161.5,141.5 Z"/></g>
<g><path style="opacity:1" fill="#5580b5" d="M 134.5,137.5 C 133.219,151.149 132.219,164.816 131.5,178.5C 131.334,164.476 131.834,150.476 133,136.5C 134.107,135.288 134.607,135.621 134.5,137.5 Z"/></g>
<g><path style="opacity:1" fill="#fae7c5" d="M 267.5,162.5 C 260.775,163.852 254.442,166.185 248.5,169.5C 245.874,170.762 243.207,172.096 240.5,173.5C 239.649,175.882 238.316,177.882 236.5,179.5C 233.306,185.41 231.806,191.743 232,198.5C 230.085,194.749 227.585,191.415 224.5,188.5C 221.339,191.512 218.506,194.845 216,198.5C 216.364,186.654 211.864,177.154 202.5,170C 201.207,169.51 199.873,169.343 198.5,169.5C 191.421,165.371 183.754,163.037 175.5,162.5C 174.097,161.069 172.431,159.902 170.5,159C 170.833,158.667 171.167,158.333 171.5,158C 178.81,156.092 186.144,156.092 193.5,158C 207.281,160.134 217.448,167.301 224,179.5C 233.323,163.829 247.323,156.162 266,156.5C 280.226,157.441 280.726,159.441 267.5,162.5 Z"/></g>
<g><path style="opacity:1" fill="#4fb8d2" d="M 133.5,185.5 C 132.833,185.167 132.167,184.833 131.5,184.5C 131.709,183.078 132.209,181.745 133,180.5C 133.333,171.5 133.667,162.5 134,153.5C 134.718,164.532 134.552,175.199 133.5,185.5 Z"/></g>
<g><path style="opacity:1" fill="#c2e8ee" d="M 137.5,137.5 C 136.883,137.611 136.383,137.944 136,138.5C 135.566,154.95 135.399,171.283 135.5,187.5C 134.833,187.167 134.167,186.833 133.5,186.5C 133.5,186.167 133.5,185.833 133.5,185.5C 134.552,175.199 134.718,164.532 134,153.5C 133.667,162.5 133.333,171.5 133,180.5C 132.209,181.745 131.709,183.078 131.5,184.5C 130.709,182.691 130.709,180.691 131.5,178.5C 132.219,164.816 133.219,151.149 134.5,137.5C 135.652,136.375 136.652,136.375 137.5,137.5 Z"/></g>
<g><path style="opacity:1" fill="#55230e" d="M 147.5,140.5 C 148.748,150.706 153.748,158.539 162.5,164C 166.519,165.395 170.186,167.228 173.5,169.5C 171.379,169.325 169.379,169.659 167.5,170.5C 164.224,170.144 161.557,171.144 159.5,173.5C 159.762,172.022 159.429,170.689 158.5,169.5C 155.506,167.338 153.006,164.672 151,161.5C 150.316,160.216 150.483,159.049 151.5,158C 147.654,152.583 146.32,146.75 147.5,140.5 Z"/></g>
<g><path style="opacity:1" fill="#dcd1c9" d="M 131.5,134.5 C 136.272,135.093 140.939,136.093 145.5,137.5C 144.791,138.404 143.791,138.737 142.5,138.5C 140.784,138.371 139.117,138.038 137.5,137.5C 136.652,136.375 135.652,136.375 134.5,137.5C 134.607,135.621 134.107,135.288 133,136.5C 131.834,150.476 131.334,164.476 131.5,178.5C 130.188,177.855 129.188,176.855 128.5,175.5C 130.559,170.772 130.893,165.939 129.5,161C 130.663,152.2 131.33,143.367 131.5,134.5 Z"/></g>
<g><path style="opacity:1" fill="#f4c347" d="M 127.5,165.5 C 128.139,166.097 128.472,166.93 128.5,168C 128.316,169.376 127.649,170.209 126.5,170.5C 126.366,168.708 126.699,167.042 127.5,165.5 Z"/></g>
<g><path style="opacity:1" fill="#b4cdd5" d="M 298.5,157.5 C 298.328,158.492 298.662,159.158 299.5,159.5C 298.352,163.161 296.186,166.161 293,168.5C 292.749,170.433 292.249,172.266 291.5,174C 293.177,175.995 294.677,178.161 296,180.5C 296.74,181.749 296.573,182.749 295.5,183.5C 292.611,179.402 290.278,174.902 288.5,170C 292.191,166.118 295.524,161.952 298.5,157.5 Z"/></g>
<g><path style="opacity:1" fill="#cea573" d="M 173.5,169.5 C 178.5,169.5 183.5,169.5 188.5,169.5C 192.218,170.129 195.551,171.629 198.5,174C 192.214,172.959 186.214,173.792 180.5,176.5C 181.85,175.176 181.683,174.176 180,173.5C 175.867,172.6 171.7,171.933 167.5,171.5C 167.5,171.167 167.5,170.833 167.5,170.5C 169.379,169.659 171.379,169.325 173.5,169.5 Z"/></g>
<g><path style="opacity:1" fill="#d0a97a" d="M 273.5,169.5 C 276.059,169.198 278.393,169.532 280.5,170.5C 280.5,170.833 280.5,171.167 280.5,171.5C 275.325,171.272 270.325,172.105 265.5,174C 266.942,174.377 267.942,175.21 268.5,176.5C 264.882,174.97 261.049,173.97 257,173.5C 255.293,173.648 253.626,173.982 252,174.5C 250.355,172.265 251.188,171.265 254.5,171.5C 260.68,169.818 267.013,169.152 273.5,169.5 Z"/></g>
<g><path style="opacity:1" fill="#fbeac8" d="M 280.5,171.5 C 289.404,182.12 293.237,194.453 292,208.5C 289.592,221.749 281.758,228.749 268.5,229.5C 261.429,230.474 255.095,228.807 249.5,224.5C 246.271,222.058 243.271,219.392 240.5,216.5C 239.253,214.677 238.586,212.677 238.5,210.5C 238.5,209.167 239.167,208.5 240.5,208.5C 243.452,210.927 246.618,213.26 250,215.5C 252.319,216.871 254.819,217.538 257.5,217.5C 271.897,219.077 279.564,212.41 280.5,197.5C 280.333,195.167 280.167,192.833 280,190.5C 279.722,189.584 279.222,188.918 278.5,188.5C 276.766,186.91 275.6,184.91 275,182.5C 272.591,180.583 270.424,178.583 268.5,176.5C 267.942,175.21 266.942,174.377 265.5,174C 270.325,172.105 275.325,171.272 280.5,171.5 Z"/></g>
<g><path style="opacity:1" fill="#4d1b0a" d="M 175.5,162.5 C 183.754,163.037 191.421,165.371 198.5,169.5C 208.681,177.86 212.681,188.527 210.5,201.5C 207.016,209.967 200.683,215.301 191.5,217.5C 176.171,217.038 168.505,209.038 168.5,193.5C 170.11,186.211 174.11,180.545 180.5,176.5C 186.214,173.792 192.214,172.959 198.5,174C 195.551,171.629 192.218,170.129 188.5,169.5C 183.04,167.403 177.373,165.57 171.5,164C 172.901,163.59 174.234,163.09 175.5,162.5 Z"/></g>
<g><path style="opacity:1" fill="#7e480f" d="M 131.5,134.5 C 131.33,143.367 130.663,152.2 129.5,161C 130.893,165.939 130.559,170.772 128.5,175.5C 129.188,176.855 130.188,177.855 131.5,178.5C 130.709,180.691 130.709,182.691 131.5,184.5C 132.167,184.833 132.833,185.167 133.5,185.5C 133.5,185.833 133.5,186.167 133.5,186.5C 132.521,189.625 132.187,192.958 132.5,196.5C 131.929,197.973 131.929,199.64 132.5,201.5C 131.325,201.281 130.325,201.614 129.5,202.5C 130.393,205.084 130.726,207.751 130.5,210.5C 130.167,210.5 129.833,210.5 129.5,210.5C 128.863,207.544 128.363,204.544 128,201.5C 127.333,214.833 126.667,214.833 126,201.5C 125.665,205.736 124.832,209.736 123.5,213.5C 123.665,210.15 123.498,206.817 123,203.5C 122.667,205.167 122.333,206.833 122,208.5C 121.802,206.618 121.302,204.952 120.5,203.5C 120.71,200.248 120.044,197.248 118.5,194.5C 121.557,196.92 124.557,196.92 127.5,194.5C 128.5,195.167 129.5,195.833 130.5,196.5C 131.833,193.167 131.833,189.833 130.5,186.5C 129.548,187.533 129.548,188.7 130.5,190C 130.361,191.301 129.695,192.134 128.5,192.5C 128.5,190.5 128.5,188.5 128.5,186.5C 126.833,186.5 125.167,186.5 123.5,186.5C 123.5,188.833 123.5,191.167 123.5,193.5C 123.607,195.379 123.107,195.712 122,194.5C 121.503,191.854 121.336,189.187 121.5,186.5C 124.667,181.699 126.333,176.365 126.5,170.5C 127.649,170.209 128.316,169.376 128.5,168C 128.472,166.93 128.139,166.097 127.5,165.5C 128.43,161.6 128.763,157.6 128.5,153.5C 129.679,147.19 130.679,140.857 131.5,134.5 Z"/></g>
<g><path style="opacity:1" fill="#fbd41d" d="M 200.5,183.5 C 191.062,181.41 184.728,184.743 181.5,193.5C 179.867,203.602 184.034,209.268 194,210.5C 197.152,209.004 200.318,207.671 203.5,206.5C 203.141,208.371 202.141,209.871 200.5,211C 196.035,212.926 191.368,213.76 186.5,213.5C 183.897,211.832 181.231,210.166 178.5,208.5C 178.736,205.774 177.903,203.441 176,201.5C 174.134,192.425 176.967,185.258 184.5,180C 190.097,178.909 195.43,179.576 200.5,182C 201.738,182.69 201.738,183.19 200.5,183.5 Z"/></g>
<g><path style="opacity:1" fill="#350904" d="M 200.5,183.5 C 201.5,184.833 202.5,186.167 203.5,187.5C 203.5,187.833 203.5,188.167 203.5,188.5C 201.833,188.5 200.167,188.5 198.5,188.5C 198.282,192.536 199.949,193.87 203.5,192.5C 203.5,194.833 203.5,197.167 203.5,199.5C 202.189,203.759 199.189,206.092 194.5,206.5C 193.167,206.333 191.833,206.167 190.5,206C 186.807,202.17 183.807,198.004 181.5,193.5C 184.728,184.743 191.062,181.41 200.5,183.5 Z"/></g>
<g><path style="opacity:1" fill="#6c4d1f" d="M 133.5,186.5 C 134.167,186.833 134.833,187.167 135.5,187.5C 136.341,189.379 136.675,191.379 136.5,193.5C 135.272,194.306 134.272,195.306 133.5,196.5C 134.707,193.148 134.707,189.814 133.5,186.5 Z"/></g>
<g><path style="opacity:1" fill="#faf5f4" d="M 203.5,188.5 C 203.5,189.833 203.5,191.167 203.5,192.5C 199.949,193.87 198.282,192.536 198.5,188.5C 200.167,188.5 201.833,188.5 203.5,188.5 Z"/></g>
<g><path style="opacity:1" fill="#e6c79a" d="M 198.5,169.5 C 199.873,169.343 201.207,169.51 202.5,170C 211.864,177.154 216.364,186.654 216,198.5C 218.506,194.845 221.339,191.512 224.5,188.5C 227.585,191.415 230.085,194.749 232,198.5C 231.806,191.743 233.306,185.41 236.5,179.5C 238.316,177.882 239.649,175.882 240.5,173.5C 243.207,172.096 245.874,170.762 248.5,169.5C 236.813,180.59 234.146,193.59 240.5,208.5C 239.167,208.5 238.5,209.167 238.5,210.5C 238.167,210.5 237.833,210.5 237.5,210.5C 237.167,209.5 236.5,208.833 235.5,208.5C 235.5,207.167 234.833,206.5 233.5,206.5C 233.715,204.821 233.048,203.821 231.5,203.5C 230.833,200.833 229.167,199.167 226.5,198.5C 224.952,196.078 223.286,196.078 221.5,198.5C 219.81,198.856 218.81,199.856 218.5,201.5C 217.167,201.5 216.5,202.167 216.5,203.5C 214.605,204.973 212.939,206.64 211.5,208.5C 211.802,205.941 211.468,203.607 210.5,201.5C 212.681,188.527 208.681,177.86 198.5,169.5 Z"/></g>
<g><path style="opacity:1" fill="#f5ece5" d="M 186.5,189.5 C 187.586,189.62 188.253,190.287 188.5,191.5C 187.696,193.957 186.696,193.957 185.5,191.5C 185.863,190.817 186.196,190.15 186.5,189.5 Z"/></g>
<g><path style="opacity:1" fill="#c58a23" d="M 121.5,186.5 C 121.336,189.187 121.503,191.854 122,194.5C 123.107,195.712 123.607,195.379 123.5,193.5C 125.292,193.634 126.958,193.301 128.5,192.5C 129.695,192.134 130.361,191.301 130.5,190C 129.548,188.7 129.548,187.533 130.5,186.5C 131.833,189.833 131.833,193.167 130.5,196.5C 129.5,195.833 128.5,195.167 127.5,194.5C 124.557,196.92 121.557,196.92 118.5,194.5C 118.018,191.169 119.018,188.503 121.5,186.5 Z"/></g>
<g><path style="opacity:1" fill="#f9cf11" d="M 128.5,192.5 C 126.958,193.301 125.292,193.634 123.5,193.5C 123.5,191.167 123.5,188.833 123.5,186.5C 125.167,186.5 126.833,186.5 128.5,186.5C 128.5,188.5 128.5,190.5 128.5,192.5 Z"/></g>
<g><path style="opacity:1" fill="#971a0b" d="M 203.5,187.5 C 205.417,188.116 206.584,189.45 207,191.5C 207.483,190.552 207.649,189.552 207.5,188.5C 208.161,190.134 208.494,191.967 208.5,194C 208.64,197.15 207.973,199.983 206.5,202.5C 206.5,201.5 206.5,200.5 206.5,199.5C 205.5,199.5 204.5,199.5 203.5,199.5C 203.5,197.167 203.5,194.833 203.5,192.5C 203.5,191.167 203.5,189.833 203.5,188.5C 203.5,188.167 203.5,187.833 203.5,187.5 Z"/></g>
<g><path style="opacity:1" fill="#bf9027" d="M 133.5,186.5 C 134.707,189.814 134.707,193.148 133.5,196.5C 133.167,196.5 132.833,196.5 132.5,196.5C 132.187,192.958 132.521,189.625 133.5,186.5 Z"/></g>
<g><path style="opacity:1" fill="#e4d4c3" d="M 136.5,193.5 C 135.217,196.01 134.217,198.677 133.5,201.5C 133.167,201.5 132.833,201.5 132.5,201.5C 131.929,199.64 131.929,197.973 132.5,196.5C 132.833,196.5 133.167,196.5 133.5,196.5C 134.272,195.306 135.272,194.306 136.5,193.5 Z"/></g>
<g><path style="opacity:1" fill="#4c2306" d="M 226.5,198.5 C 224.833,198.5 223.167,198.5 221.5,198.5C 223.286,196.078 224.952,196.078 226.5,198.5 Z"/></g>
<g><path style="opacity:1" fill="#e37b16" d="M 207.5,188.5 C 207.649,189.552 207.483,190.552 207,191.5C 206.584,189.45 205.417,188.116 203.5,187.5C 202.5,186.167 201.5,184.833 200.5,183.5C 201.738,183.19 201.738,182.69 200.5,182C 195.43,179.576 190.097,178.909 184.5,180C 176.967,185.258 174.134,192.425 176,201.5C 177.903,203.441 178.736,205.774 178.5,208.5C 181.231,210.166 183.897,211.832 186.5,213.5C 177.467,211.952 172.801,206.452 172.5,197C 172.461,187.088 177.128,180.421 186.5,177C 193.204,176.018 199.204,177.685 204.5,182C 206.171,183.843 207.171,186.009 207.5,188.5 Z"/></g>
<g><path style="opacity:1" fill="#5f2907" d="M 221.5,198.5 C 221.443,199.609 221.11,200.609 220.5,201.5C 219.833,201.5 219.167,201.5 218.5,201.5C 218.81,199.856 219.81,198.856 221.5,198.5 Z"/></g>
<g><path style="opacity:1" fill="#5d2d16" d="M 226.5,198.5 C 229.167,199.167 230.833,200.833 231.5,203.5C 230.5,202.833 229.5,202.167 228.5,201.5C 227.833,200.5 227.167,199.5 226.5,198.5 Z"/></g>
<g><path style="opacity:1" fill="#470e01" d="M 218.5,201.5 C 218.5,202.833 217.833,203.5 216.5,203.5C 216.5,202.167 217.167,201.5 218.5,201.5 Z"/></g>
<g><path style="opacity:1" fill="#491908" d="M 267.5,162.5 C 270.32,162.248 272.986,162.748 275.5,164C 270.385,164.955 265.385,166.289 260.5,168C 258.121,168.716 256.121,169.883 254.5,171.5C 251.188,171.265 250.355,172.265 252,174.5C 253.626,173.982 255.293,173.648 257,173.5C 261.049,173.97 264.882,174.97 268.5,176.5C 270.424,178.583 272.591,180.583 275,182.5C 275.6,184.91 276.766,186.91 278.5,188.5C 281.457,205.637 274.457,215.304 257.5,217.5C 254.819,217.538 252.319,216.871 250,215.5C 246.618,213.26 243.452,210.927 240.5,208.5C 234.146,193.59 236.813,180.59 248.5,169.5C 254.442,166.185 260.775,163.852 267.5,162.5 Z"/></g>
<g><path style="opacity:1" fill="#da3807" d="M 263.5,198.5 C 265.048,198.821 265.715,199.821 265.5,201.5C 265.359,204.968 263.692,207.301 260.5,208.5C 258.429,210.1 256.095,210.6 253.5,210C 248.935,208.227 244.935,205.727 241.5,202.5C 241.402,199.752 242.402,199.086 244.5,200.5C 248.857,206.424 254.19,207.591 260.5,204C 262.607,202.736 263.607,200.903 263.5,198.5 Z"/></g>
<g><path style="opacity:1" fill="#8c2202" d="M 265.5,191.5 C 268.167,194.833 268.167,198.167 265.5,201.5C 265.715,199.821 265.048,198.821 263.5,198.5C 263.5,197.833 263.5,197.167 263.5,196.5C 265.256,195.448 265.923,193.781 265.5,191.5 Z"/></g>
<g><path style="opacity:1" fill="#9d1d0a" d="M 247.5,183.5 C 248.5,183.5 249.5,183.5 250.5,183.5C 250.167,186.5 248.5,188.167 245.5,188.5C 244.728,192.452 244.395,196.452 244.5,200.5C 242.402,199.086 241.402,199.752 241.5,202.5C 241.5,202.833 241.5,203.167 241.5,203.5C 240.087,200.618 239.421,197.451 239.5,194C 239.506,191.967 239.839,190.134 240.5,188.5C 240.351,189.552 240.517,190.552 241,191.5C 242.652,188.354 244.819,185.688 247.5,183.5 Z"/></g>
<g><path style="opacity:1" fill="#f5f1ea" d="M 262.5,186.5 C 263.833,186.5 264.5,187.167 264.5,188.5C 264.938,192.908 262.938,194.575 258.5,193.5C 258.201,191.396 258.534,189.396 259.5,187.5C 260.417,186.873 261.417,186.539 262.5,186.5 Z"/></g>
<g><path style="opacity:1" fill="#360906" d="M 250.5,183.5 C 253.898,183.18 257.232,183.513 260.5,184.5C 261.243,185.182 261.909,185.849 262.5,186.5C 261.417,186.539 260.417,186.873 259.5,187.5C 258.534,189.396 258.201,191.396 258.5,193.5C 262.938,194.575 264.938,192.908 264.5,188.5C 265.404,189.209 265.737,190.209 265.5,191.5C 265.923,193.781 265.256,195.448 263.5,196.5C 263.5,197.167 263.5,197.833 263.5,198.5C 263.607,200.903 262.607,202.736 260.5,204C 254.19,207.591 248.857,206.424 244.5,200.5C 244.395,196.452 244.728,192.452 245.5,188.5C 248.5,188.167 250.167,186.5 250.5,183.5 Z"/></g>
<g><path style="opacity:1" fill="#faf6f1" d="M 263.5,196.5 C 262.325,196.719 261.325,196.386 260.5,195.5C 262.052,194.202 263.052,194.535 263.5,196.5 Z"/></g>
<g><path style="opacity:1" fill="#e37e13" d="M 268.5,211.5 C 268.5,210.5 268.5,209.5 268.5,208.5C 275.04,200.68 275.04,192.68 268.5,184.5C 263.317,179.661 257.317,178.328 250.5,180.5C 249.23,181.288 248.23,182.288 247.5,183.5C 244.819,185.688 242.652,188.354 241,191.5C 240.517,190.552 240.351,189.552 240.5,188.5C 240.595,185.642 241.762,183.309 244,181.5C 251.812,175.175 259.978,174.842 268.5,180.5C 273.214,184.575 275.547,189.741 275.5,196C 275.749,202.335 273.416,207.501 268.5,211.5 Z"/></g>
<g><path style="opacity:1" fill="#fbd61c" d="M 268.5,208.5 C 265.975,210.571 262.975,211.905 259.5,212.5C 259.167,212.167 258.833,211.833 258.5,211.5C 259.193,210.482 259.859,209.482 260.5,208.5C 263.692,207.301 265.359,204.968 265.5,201.5C 268.167,198.167 268.167,194.833 265.5,191.5C 265.737,190.209 265.404,189.209 264.5,188.5C 264.5,187.167 263.833,186.5 262.5,186.5C 261.909,185.849 261.243,185.182 260.5,184.5C 257.232,183.513 253.898,183.18 250.5,183.5C 249.5,183.5 248.5,183.5 247.5,183.5C 248.23,182.288 249.23,181.288 250.5,180.5C 257.317,178.328 263.317,179.661 268.5,184.5C 275.04,192.68 275.04,200.68 268.5,208.5 Z"/></g>
<g><path style="opacity:1" fill="#6a2d09" d="M 216.5,203.5 C 215.986,205.698 214.986,207.698 213.5,209.5C 213.043,210.298 212.376,210.631 211.5,210.5C 211.5,209.833 211.5,209.167 211.5,208.5C 212.939,206.64 214.605,204.973 216.5,203.5 Z"/></g>
<g><path style="opacity:1" fill="#591c07" d="M 231.5,203.5 C 233.048,203.821 233.715,204.821 233.5,206.5C 232.599,205.71 231.932,204.71 231.5,203.5 Z"/></g>
<g><path style="opacity:1" fill="#f89d0e" d="M 228.5,201.5 C 229.5,202.167 230.5,202.833 231.5,203.5C 231.932,204.71 232.599,205.71 233.5,206.5C 234.833,206.5 235.5,207.167 235.5,208.5C 235.5,210.167 235.5,211.833 235.5,213.5C 234.833,213.5 234.167,213.5 233.5,213.5C 231.379,216.103 229.046,218.436 226.5,220.5C 226.745,214.108 227.412,207.774 228.5,201.5 Z"/></g>
<g><path style="opacity:1" fill="#501301" d="M 233.5,206.5 C 234.833,206.5 235.5,207.167 235.5,208.5C 234.167,208.5 233.5,207.833 233.5,206.5 Z"/></g>
<g><path style="opacity:1" fill="#da3f0a" d="M 181.5,193.5 C 183.807,198.004 186.807,202.17 190.5,206C 191.833,206.167 193.167,206.333 194.5,206.5C 199.189,206.092 202.189,203.759 203.5,199.5C 204.5,199.5 205.5,199.5 206.5,199.5C 206.5,200.5 206.5,201.5 206.5,202.5C 206.446,204.632 205.446,205.965 203.5,206.5C 200.318,207.671 197.152,209.004 194,210.5C 184.034,209.268 179.867,203.602 181.5,193.5 Z"/></g>
<g><path style="opacity:1" fill="#fcb814" d="M 221.5,198.5 C 223.167,198.5 224.833,198.5 226.5,198.5C 227.167,199.5 227.833,200.5 228.5,201.5C 227.412,207.774 226.745,214.108 226.5,220.5C 226.585,223.649 225.585,226.316 223.5,228.5C 223.5,226.833 223.5,225.167 223.5,223.5C 222.906,216.077 221.906,208.744 220.5,201.5C 221.11,200.609 221.443,199.609 221.5,198.5 Z"/></g>
<g><path style="opacity:1" fill="#4c1706" d="M 235.5,208.5 C 236.5,208.833 237.167,209.5 237.5,210.5C 237.715,212.179 237.048,213.179 235.5,213.5C 235.5,211.833 235.5,210.167 235.5,208.5 Z"/></g>
<g><path style="opacity:1" fill="#f6af1d" d="M 241.5,203.5 C 241.5,203.167 241.5,202.833 241.5,202.5C 244.935,205.727 248.935,208.227 253.5,210C 256.095,210.6 258.429,210.1 260.5,208.5C 259.859,209.482 259.193,210.482 258.5,211.5C 258.833,211.833 259.167,212.167 259.5,212.5C 262.975,211.905 265.975,210.571 268.5,208.5C 268.5,209.5 268.5,210.5 268.5,211.5C 260.868,214.55 253.535,214.05 246.5,210C 244.934,207.674 243.268,205.508 241.5,203.5 Z"/></g>
<g><path style="opacity:1" fill="#cdac87" d="M 168.5,193.5 C 168.505,209.038 176.171,217.038 191.5,217.5C 178.768,219.629 170.934,214.295 168,201.5C 167.199,198.633 167.366,195.966 168.5,193.5 Z"/></g>
<g><path style="opacity:1" fill="#faa10c" d="M 218.5,201.5 C 219.167,201.5 219.833,201.5 220.5,201.5C 221.906,208.744 222.906,216.077 223.5,223.5C 221.62,220.386 219.287,217.72 216.5,215.5C 214.5,214.167 212.833,212.5 211.5,210.5C 212.376,210.631 213.043,210.298 213.5,209.5C 214.986,207.698 215.986,205.698 216.5,203.5C 217.833,203.5 218.5,202.833 218.5,201.5 Z"/></g>
<g><path style="opacity:1" fill="#6d2d10" d="M 211.5,210.5 C 212.833,212.5 214.5,214.167 216.5,215.5C 216.5,216.5 216.5,217.5 216.5,218.5C 214.846,217.25 213.179,215.916 211.5,214.5C 210.89,213.609 210.557,212.609 210.5,211.5C 210.5,210.833 210.833,210.5 211.5,210.5 Z"/></g>
<g><path style="opacity:1" fill="#c78f1e" d="M 129.5,210.5 C 129.5,216.833 129.5,223.167 129.5,229.5C 126.833,229.5 124.167,229.5 121.5,229.5C 121.5,229.167 121.5,228.833 121.5,228.5C 122.268,227.737 122.768,226.737 123,225.5C 123.499,221.514 123.666,217.514 123.5,213.5C 124.832,209.736 125.665,205.736 126,201.5C 126.667,214.833 127.333,214.833 128,201.5C 128.363,204.544 128.863,207.544 129.5,210.5 Z"/></g>
<g><path style="opacity:1" fill="#c0872c" d="M 132.5,201.5 C 132.833,201.5 133.167,201.5 133.5,201.5C 133.5,203.167 133.5,204.833 133.5,206.5C 133.5,213.833 133.5,221.167 133.5,228.5C 132.833,228.5 132.167,228.5 131.5,228.5C 130.51,222.69 130.177,216.69 130.5,210.5C 130.726,207.751 130.393,205.084 129.5,202.5C 130.325,201.614 131.325,201.281 132.5,201.5 Z"/></g>
<g><path style="opacity:1" fill="#654922" d="M 133.5,206.5 C 134.199,213.37 134.866,220.37 135.5,227.5C 135.043,228.298 134.376,228.631 133.5,228.5C 133.5,221.167 133.5,213.833 133.5,206.5 Z"/></g>
<g><path style="opacity:1" fill="#fbe9c7" d="M 167.5,171.5 C 171.7,171.933 175.867,172.6 180,173.5C 181.683,174.176 181.85,175.176 180.5,176.5C 174.11,180.545 170.11,186.211 168.5,193.5C 167.366,195.966 167.199,198.633 168,201.5C 170.934,214.295 178.768,219.629 191.5,217.5C 200.683,215.301 207.016,209.967 210.5,201.5C 211.468,203.607 211.802,205.941 211.5,208.5C 211.5,209.167 211.5,209.833 211.5,210.5C 210.833,210.5 210.5,210.833 210.5,211.5C 206.158,218.125 200.491,223.458 193.5,227.5C 188.312,229.184 182.978,229.851 177.5,229.5C 167.034,228.847 160.2,223.514 157,213.5C 153.612,197.561 157.112,183.561 167.5,171.5 Z"/></g>
<g><path style="opacity:1" fill="#8b5513" d="M 119.5,206.5 C 120.476,213.67 120.476,221.003 119.5,228.5C 118.167,221.167 118.167,213.833 119.5,206.5 Z"/></g>
<g><path style="opacity:1" fill="#c8a983" d="M 278.5,188.5 C 279.222,188.918 279.722,189.584 280,190.5C 280.167,192.833 280.333,195.167 280.5,197.5C 279.564,212.41 271.897,219.077 257.5,217.5C 274.457,215.304 281.457,205.637 278.5,188.5 Z"/></g>
<g><path style="opacity:1" fill="#d7b27b" d="M 237.5,210.5 C 237.833,210.5 238.167,210.5 238.5,210.5C 238.586,212.677 239.253,214.677 240.5,216.5C 243.271,219.392 246.271,222.058 249.5,224.5C 255.095,228.807 261.429,230.474 268.5,229.5C 267.432,230.434 266.099,230.768 264.5,230.5C 263.711,233.434 261.711,235.268 258.5,236C 251.008,238.033 243.342,239.033 235.5,239C 234.584,239.278 233.918,239.778 233.5,240.5C 230.225,241.936 227.059,243.603 224,245.5C 220.807,243.008 217.307,241.342 213.5,240.5C 213.082,239.778 212.416,239.278 211.5,239C 203.658,239.033 195.992,238.033 188.5,236C 186.658,234.656 184.992,233.156 183.5,231.5C 181.369,230.831 179.369,230.165 177.5,229.5C 182.978,229.851 188.312,229.184 193.5,227.5C 200.491,223.458 206.158,218.125 210.5,211.5C 210.557,212.609 210.89,213.609 211.5,214.5C 212.602,219.057 214.935,222.724 218.5,225.5C 218.351,226.552 218.517,227.552 219,228.5C 220.84,230.338 222.507,232.338 224,234.5C 225.663,232.842 226.496,230.842 226.5,228.5C 230.652,224.522 232.985,219.522 233.5,213.5C 234.167,213.5 234.833,213.5 235.5,213.5C 237.048,213.179 237.715,212.179 237.5,210.5 Z"/></g>
<g><path style="opacity:1" fill="#a1754b" d="M 211.5,214.5 C 213.179,215.916 214.846,217.25 216.5,218.5C 217.674,219.514 218.34,220.847 218.5,222.5C 218.5,223.5 218.5,224.5 218.5,225.5C 214.935,222.724 212.602,219.057 211.5,214.5 Z"/></g>
<g><path style="opacity:1" fill="#5b8cb7" d="M 137.5,229.5 C 136.01,231.28 134.01,231.946 131.5,231.5C 132.878,230.766 134.378,230.099 136,229.5C 136.645,220.801 136.312,212.135 135,203.5C 134.722,202.584 134.222,201.918 133.5,201.5C 134.217,198.677 135.217,196.01 136.5,193.5C 137.161,192.282 137.828,190.949 138.5,189.5C 138.833,190.333 139.167,191.167 139.5,192C 138.622,193.779 138.622,195.445 139.5,197C 137.814,199.208 136.814,201.708 136.5,204.5C 137.408,212.805 137.741,221.139 137.5,229.5 Z"/></g>
<g><path style="opacity:1" fill="#9b5c2d" d="M 167.5,170.5 C 167.5,170.833 167.5,171.167 167.5,171.5C 157.112,183.561 153.612,197.561 157,213.5C 160.2,223.514 167.034,228.847 177.5,229.5C 179.369,230.165 181.369,230.831 183.5,231.5C 184.992,233.156 186.658,234.656 188.5,236C 195.992,238.033 203.658,239.033 211.5,239C 212.416,239.278 213.082,239.778 213.5,240.5C 206.08,240.536 198.747,241.369 191.5,243C 181.295,245.031 171.961,243.198 163.5,237.5C 162.109,235.11 160.109,233.443 157.5,232.5C 156.614,231.675 156.281,230.675 156.5,229.5C 155.5,229.5 154.5,229.5 153.5,229.5C 153.193,226.72 152.193,224.22 150.5,222C 151.022,221.05 151.689,220.216 152.5,219.5C 150.803,218.636 149.637,217.303 149,215.5C 148.517,216.448 148.351,217.448 148.5,218.5C 147.348,213.015 147.182,207.349 148,201.5C 149.846,198.431 150.846,195.098 151,191.5C 153.588,185.326 156.422,179.326 159.5,173.5C 161.557,171.144 164.224,170.144 167.5,170.5 Z"/></g>
<g><path style="opacity:1" fill="#a84f10" d="M 233.5,213.5 C 232.985,219.522 230.652,224.522 226.5,228.5C 225.685,229.429 224.852,230.429 224,231.5C 223.517,230.552 223.351,229.552 223.5,228.5C 225.585,226.316 226.585,223.649 226.5,220.5C 229.046,218.436 231.379,216.103 233.5,213.5 Z"/></g>
<g><path style="opacity:1" fill="#ecb431" d="M 120.5,203.5 C 121.302,204.952 121.802,206.618 122,208.5C 122.333,206.833 122.667,205.167 123,203.5C 123.498,206.817 123.665,210.15 123.5,213.5C 123.666,217.514 123.499,221.514 123,225.5C 122.768,226.737 122.268,227.737 121.5,228.5C 120.833,228.5 120.167,228.5 119.5,228.5C 120.476,221.003 120.476,213.67 119.5,206.5C 119.263,205.209 119.596,204.209 120.5,203.5 Z"/></g>
<g><path style="opacity:1" fill="#8eccd9" d="M 290.5,236.5 C 298.811,227.013 302.811,215.846 302.5,203C 300.217,197.32 298.217,191.487 296.5,185.5C 296.435,185.062 296.601,184.728 297,184.5C 300.474,186.889 302.474,190.223 303,194.5C 304.133,204.985 303.467,215.318 301,225.5C 297.952,230.943 294.952,236.277 292,241.5C 291.392,239.846 290.892,238.179 290.5,236.5 Z"/></g>
<g><path style="opacity:1" fill="#e1770c" d="M 216.5,215.5 C 219.287,217.72 221.62,220.386 223.5,223.5C 223.5,225.167 223.5,226.833 223.5,228.5C 221.836,226.592 220.169,224.592 218.5,222.5C 218.34,220.847 217.674,219.514 216.5,218.5C 216.5,217.5 216.5,216.5 216.5,215.5 Z"/></g>
<g><path style="opacity:1" fill="#683911" d="M 129.5,210.5 C 129.833,210.5 130.167,210.5 130.5,210.5C 130.177,216.69 130.51,222.69 131.5,228.5C 131.389,229.117 131.056,229.617 130.5,230C 127.304,230.805 124.304,230.638 121.5,229.5C 124.167,229.5 126.833,229.5 129.5,229.5C 129.5,223.167 129.5,216.833 129.5,210.5 Z"/></g>
<g><path style="opacity:1" fill="#80472b" d="M 218.5,222.5 C 220.169,224.592 221.836,226.592 223.5,228.5C 223.351,229.552 223.517,230.552 224,231.5C 224.852,230.429 225.685,229.429 226.5,228.5C 226.496,230.842 225.663,232.842 224,234.5C 222.507,232.338 220.84,230.338 219,228.5C 218.517,227.552 218.351,226.552 218.5,225.5C 218.5,224.5 218.5,223.5 218.5,222.5 Z"/></g>
<g><path style="opacity:1" fill="#a2cde0" d="M 137.5,229.5 C 138.935,231.665 138.269,233.165 135.5,234C 130.711,234.269 126.045,234.269 121.5,234C 124.167,233.333 124.167,232.667 121.5,232C 124.817,231.502 128.15,231.335 131.5,231.5C 134.01,231.946 136.01,231.28 137.5,229.5 Z"/></g>
<g><path style="opacity:1" fill="#9c5d2d" d="M 285.5,237.5 C 278.552,240.927 271.219,242.927 263.5,243.5C 253.55,241.977 243.55,240.977 233.5,240.5C 233.918,239.778 234.584,239.278 235.5,239C 243.342,239.033 251.008,238.033 258.5,236C 261.711,235.268 263.711,233.434 264.5,230.5C 266.099,230.768 267.432,230.434 268.5,229.5C 281.758,228.749 289.592,221.749 292,208.5C 293.237,194.453 289.404,182.12 280.5,171.5C 280.5,171.167 280.5,170.833 280.5,170.5C 282.144,170.714 283.644,170.38 285,169.5C 289.508,177.26 293.508,185.26 297,193.5C 298.406,201.749 298.906,210.083 298.5,218.5C 297.325,218.281 296.325,218.614 295.5,219.5C 296.714,223.118 296.048,226.451 293.5,229.5C 291.146,232.521 288.479,235.188 285.5,237.5 Z"/></g>
<g><path style="opacity:1" fill="#753d1f" d="M 143.5,301.5 C 142.343,292.676 142.176,283.676 143,274.5C 143.333,274.833 143.667,275.167 144,275.5C 145.187,273.956 145.52,272.289 145,270.5C 144.444,272.595 143.944,272.762 143.5,271C 143.862,269.775 144.362,268.609 145,267.5C 145.333,267.833 145.667,268.167 146,268.5C 146.492,267.451 146.326,266.451 145.5,265.5C 149.672,259.359 153.339,253.026 156.5,246.5C 156.56,247.043 156.893,247.376 157.5,247.5C 161.764,243.309 166.43,242.643 171.5,245.5C 171.665,248.85 171.498,252.183 171,255.5C 168.42,261.471 165.42,267.138 162,272.5C 161,273.833 160,273.833 159,272.5C 157.901,276.141 156.234,279.475 154,282.5C 153.667,281.5 153.333,280.5 153,279.5C 151.543,282.886 149.543,285.886 147,288.5C 147.333,284.833 147.667,281.167 148,277.5C 143.795,284.83 142.295,292.83 143.5,301.5 Z"/></g>
<g><path style="opacity:1" fill="#723a1c" d="M 288.5,245.5 C 292.493,249.463 296.493,253.463 300.5,257.5C 301.167,257.5 301.5,257.833 301.5,258.5C 300.761,258.369 300.094,258.536 299.5,259C 300.337,260.011 300.67,261.178 300.5,262.5C 300.415,265.649 301.415,268.316 303.5,270.5C 303.796,272.403 304.463,274.07 305.5,275.5C 305.665,279.182 305.499,282.848 305,286.5C 303.927,284.453 302.761,282.453 301.5,280.5C 300.833,282.833 300.167,285.167 299.5,287.5C 297.192,283.756 295.359,279.756 294,275.5C 293.667,276.833 293.333,278.167 293,279.5C 291.111,277.517 289.778,275.184 289,272.5C 288.259,273.641 287.425,273.641 286.5,272.5C 281.489,265.485 277.822,257.818 275.5,249.5C 278.396,243.361 282.73,242.027 288.5,245.5 Z"/></g>
<g><path style="opacity:1" fill="#55210a" d="M 213.5,240.5 C 217.307,241.342 220.807,243.008 224,245.5C 227.059,243.603 230.225,241.936 233.5,240.5C 243.55,240.977 253.55,241.977 263.5,243.5C 271.219,242.927 278.552,240.927 285.5,237.5C 285.338,240.691 286.338,243.358 288.5,245.5C 282.73,242.027 278.396,243.361 275.5,249.5C 277.822,257.818 281.489,265.485 286.5,272.5C 287.425,273.641 288.259,273.641 289,272.5C 289.778,275.184 291.111,277.517 293,279.5C 293.333,278.167 293.667,276.833 294,275.5C 295.359,279.756 297.192,283.756 299.5,287.5C 300.167,285.167 300.833,282.833 301.5,280.5C 302.761,282.453 303.927,284.453 305,286.5C 305.499,282.848 305.665,279.182 305.5,275.5C 306.222,275.918 306.722,276.584 307,277.5C 307.167,280 307.333,282.5 307.5,285C 306.979,290.532 306.312,296.032 305.5,301.5C 305.068,302.71 304.401,303.71 303.5,304.5C 303.784,302.585 303.451,300.919 302.5,299.5C 289.36,287.248 279.694,272.582 273.5,255.5C 272.808,256.025 272.308,256.692 272,257.5C 270.76,274.761 274.26,290.761 282.5,305.5C 281.833,305.833 281.167,306.167 280.5,306.5C 274.202,294.402 270.535,281.402 269.5,267.5C 269.286,260.729 269.953,254.062 271.5,247.5C 264.764,247.893 258.097,247.226 251.5,245.5C 251.167,245.5 250.833,245.5 250.5,245.5C 250.082,244.778 249.416,244.278 248.5,244C 242.5,243.333 236.5,243.333 230.5,244C 228.13,245.185 225.797,246.351 223.5,247.5C 218.991,244.541 213.991,243.207 208.5,243.5C 204.761,243.514 201.428,244.18 198.5,245.5C 197.833,245.5 197.167,245.5 196.5,245.5C 193.031,245.547 189.698,246.213 186.5,247.5C 183.08,247.483 179.746,247.317 176.5,247C 177.191,248.067 177.691,249.234 178,250.5C 178.499,255.489 178.666,260.489 178.5,265.5C 177.493,280.514 173.826,294.847 167.5,308.5C 168.246,309.736 168.579,311.07 168.5,312.5C 166.989,311.498 165.322,310.831 163.5,310.5C 173.536,292.821 177.369,273.821 175,253.5C 171.183,265.66 165.183,276.66 157,286.5C 156.517,287.448 156.351,288.448 156.5,289.5C 155.5,289.5 154.5,289.5 153.5,289.5C 153.649,290.552 153.483,291.552 153,292.5C 150.054,294.431 147.554,296.764 145.5,299.5C 144.709,301.309 144.709,303.309 145.5,305.5C 146.686,306.961 146.686,308.295 145.5,309.5C 143.954,307.118 143.287,304.451 143.5,301.5C 142.295,292.83 143.795,284.83 148,277.5C 147.667,281.167 147.333,284.833 147,288.5C 149.543,285.886 151.543,282.886 153,279.5C 153.333,280.5 153.667,281.5 154,282.5C 156.234,279.475 157.901,276.141 159,272.5C 160,273.833 161,273.833 162,272.5C 165.42,267.138 168.42,261.471 171,255.5C 171.498,252.183 171.665,248.85 171.5,245.5C 166.43,242.643 161.764,243.309 157.5,247.5C 156.893,247.376 156.56,247.043 156.5,246.5C 159.575,244.683 160.741,242.016 160,238.5C 153.852,233.208 150.018,226.541 148.5,218.5C 148.351,217.448 148.517,216.448 149,215.5C 149.637,217.303 150.803,218.636 152.5,219.5C 151.689,220.216 151.022,221.05 150.5,222C 152.193,224.22 153.193,226.72 153.5,229.5C 154.5,229.5 155.5,229.5 156.5,229.5C 156.281,230.675 156.614,231.675 157.5,232.5C 160.109,233.443 162.109,235.11 163.5,237.5C 171.961,243.198 181.295,245.031 191.5,243C 198.747,241.369 206.08,240.536 213.5,240.5 Z"/></g>
<g><path style="opacity:1" fill="#814c21" d="M 186.5,247.5 C 185.122,248.234 183.622,248.901 182,249.5C 181.503,252.146 181.336,254.813 181.5,257.5C 181.38,260.578 180.38,263.245 178.5,265.5C 178.666,260.489 178.499,255.489 178,250.5C 177.691,249.234 177.191,248.067 176.5,247C 179.746,247.317 183.08,247.483 186.5,247.5 Z"/></g>
<g><path style="opacity:1" fill="#945f30" d="M 251.5,245.5 C 258.097,247.226 264.764,247.893 271.5,247.5C 269.953,254.062 269.286,260.729 269.5,267.5C 268.774,263.752 267.107,260.419 264.5,257.5C 263.407,255.651 262.074,253.984 260.5,252.5C 258.112,249.462 255.112,247.129 251.5,245.5 Z"/></g>
<g><path style="opacity:1" fill="#a26d3c" d="M 196.5,245.5 C 192.857,247.327 189.523,249.661 186.5,252.5C 185.136,254.191 183.803,255.858 182.5,257.5C 182.167,257.5 181.833,257.5 181.5,257.5C 181.336,254.813 181.503,252.146 182,249.5C 183.622,248.901 185.122,248.234 186.5,247.5C 189.698,246.213 193.031,245.547 196.5,245.5 Z"/></g>
<g><path style="opacity:1" fill="#a67142" d="M 250.5,245.5 C 241.209,243.97 232.209,244.97 223.5,248.5C 215.498,244.791 207.164,243.791 198.5,245.5C 201.428,244.18 204.761,243.514 208.5,243.5C 213.991,243.207 218.991,244.541 223.5,247.5C 225.797,246.351 228.13,245.185 230.5,244C 236.5,243.333 242.5,243.333 248.5,244C 249.416,244.278 250.082,244.778 250.5,245.5 Z"/></g>
<g><path style="opacity:1" fill="#cf9c64" d="M 250.5,245.5 C 250.833,245.5 251.167,245.5 251.5,245.5C 255.112,247.129 258.112,249.462 260.5,252.5C 259.662,252.842 259.328,253.508 259.5,254.5C 258.469,256.961 257.802,259.627 257.5,262.5C 254.921,262.606 252.588,261.939 250.5,260.5C 248.976,259.826 247.642,258.826 246.5,257.5C 245.304,259.145 244.304,260.811 243.5,262.5C 241.522,264.391 239.522,266.391 237.5,268.5C 235.446,266.942 233.946,264.942 233,262.5C 232.464,264.869 231.297,266.869 229.5,268.5C 228.749,267.624 228.249,266.624 228,265.5C 227,267.167 226,268.833 225,270.5C 224.558,268.321 223.558,267.655 222,268.5C 221,267.5 220,266.5 219,265.5C 218.583,266.756 217.75,267.423 216.5,267.5C 216.884,265.335 216.217,263.668 214.5,262.5C 213.526,265.296 211.859,267.129 209.5,268C 207.584,265.349 205.584,262.849 203.5,260.5C 203.013,259.527 202.513,258.527 202,257.5C 201.184,258.823 200.017,259.489 198.5,259.5C 195.575,263.285 192.741,263.285 190,259.5C 189.79,257.942 189.29,256.609 188.5,255.5C 188.715,253.821 188.048,252.821 186.5,252.5C 189.523,249.661 192.857,247.327 196.5,245.5C 197.167,245.5 197.833,245.5 198.5,245.5C 207.164,243.791 215.498,244.791 223.5,248.5C 232.209,244.97 241.209,243.97 250.5,245.5 Z"/></g>
<g><path style="opacity:1" fill="#432417" d="M 301.5,258.5 C 304.29,263.772 305.623,269.438 305.5,275.5C 304.463,274.07 303.796,272.403 303.5,270.5C 303.02,267.557 302.02,264.89 300.5,262.5C 300.67,261.178 300.337,260.011 299.5,259C 300.094,258.536 300.761,258.369 301.5,258.5 Z"/></g>
<g><path style="opacity:1" fill="#e3c1aa" d="M 300.5,262.5 C 302.02,264.89 303.02,267.557 303.5,270.5C 301.415,268.316 300.415,265.649 300.5,262.5 Z"/></g>
<g><path style="opacity:1" fill="#9c5d2f" d="M 302.5,299.5 C 301.18,302.28 300.68,305.28 301,308.5C 301.2,306.68 302.034,305.347 303.5,304.5C 303.515,307.626 302.515,310.293 300.5,312.5C 298.549,312.227 297.049,312.893 296,314.5C 295.463,305.263 294.63,305.263 293.5,314.5C 292.167,314.5 290.833,314.5 289.5,314.5C 290.606,300.928 289.106,299.928 285,311.5C 284.722,310.584 284.222,309.918 283.5,309.5C 283.167,308.167 282.833,306.833 282.5,305.5C 274.26,290.761 270.76,274.761 272,257.5C 272.308,256.692 272.808,256.025 273.5,255.5C 279.694,272.582 289.36,287.248 302.5,299.5 Z"/></g>
<g><path style="opacity:1" fill="#cdd4d4" d="M 309.5,276.5 C 308.672,282.653 308.172,288.987 308,295.5C 307.76,297.852 306.927,299.852 305.5,301.5C 306.312,296.032 306.979,290.532 307.5,285C 307.333,282.5 307.167,280 307,277.5C 306.722,276.584 306.222,275.918 305.5,275.5C 305.623,269.438 304.29,263.772 301.5,258.5C 301.5,257.833 301.167,257.5 300.5,257.5C 300.5,256.833 300.5,256.167 300.5,255.5C 300.393,253.621 300.893,253.288 302,254.5C 303.3,257.295 304.8,259.961 306.5,262.5C 305.391,263.965 305.891,264.965 308,265.5C 308.32,269.214 308.82,272.881 309.5,276.5 Z"/></g>
<g><path style="opacity:1" fill="#9c5d30" d="M 163.5,310.5 C 162.001,307.953 160.501,305.286 159,302.5C 158.501,307.155 158.334,311.821 158.5,316.5C 157.5,316.5 156.5,316.5 155.5,316.5C 154.234,313.699 153.401,310.699 153,307.5C 152.814,309.9 152.314,312.234 151.5,314.5C 150.473,315.791 149.473,315.791 148.5,314.5C 147.263,313.035 146.263,311.368 145.5,309.5C 146.686,308.295 146.686,306.961 145.5,305.5C 146.833,303.5 146.833,301.5 145.5,299.5C 147.554,296.764 150.054,294.431 153,292.5C 153.483,291.552 153.649,290.552 153.5,289.5C 154.5,289.5 155.5,289.5 156.5,289.5C 156.351,288.448 156.517,287.448 157,286.5C 165.183,276.66 171.183,265.66 175,253.5C 177.369,273.821 173.536,292.821 163.5,310.5 Z"/></g>
<g><path style="opacity:1" fill="#e1bf88" d="M 186.5,252.5 C 188.048,252.821 188.715,253.821 188.5,255.5C 188.336,258.187 188.503,260.854 189,263.5C 190.506,267.048 192.673,267.381 195.5,264.5C 196.952,263.06 197.952,261.394 198.5,259.5C 200.017,259.489 201.184,258.823 202,257.5C 202.513,258.527 203.013,259.527 203.5,260.5C 202.945,264.387 204.279,267.387 207.5,269.5C 211.096,271.279 213.596,270.279 215,266.5C 215.383,267.056 215.883,267.389 216.5,267.5C 217.071,271.674 219.571,273.674 224,273.5C 225.365,273.156 226.532,272.489 227.5,271.5C 228.086,271.709 228.586,272.043 229,272.5C 230.829,270.844 232.163,268.844 233,266.5C 236.189,271.719 239.522,271.719 243,266.5C 243.49,265.207 243.657,263.873 243.5,262.5C 244.304,260.811 245.304,259.145 246.5,257.5C 247.642,258.826 248.976,259.826 250.5,260.5C 251.224,264.991 253.891,266.658 258.5,265.5C 259.244,261.881 259.577,258.215 259.5,254.5C 259.328,253.508 259.662,252.842 260.5,252.5C 262.074,253.984 263.407,255.651 264.5,257.5C 264.817,262.072 265.983,266.406 268,270.5C 268.161,283.134 270.161,295.467 274,307.5C 273.932,318.964 269.099,327.964 259.5,334.5C 258.749,333.624 258.249,332.624 258,331.5C 255.613,333.17 253.279,334.837 251,336.5C 250.667,335.5 250.333,334.5 250,333.5C 247.057,335.223 243.89,336.223 240.5,336.5C 240.247,334.173 240.914,332.173 242.5,330.5C 242.167,330.167 241.833,329.833 241.5,329.5C 239.61,331.578 237.276,332.911 234.5,333.5C 233.483,330.972 232.316,330.972 231,333.5C 230.692,332.692 230.192,332.025 229.5,331.5C 228.833,332.5 228.167,333.5 227.5,334.5C 226.289,333.61 224.955,333.61 223.5,334.5C 222.328,334.081 221.328,333.415 220.5,332.5C 218.841,334.587 217.174,334.254 215.5,331.5C 214.749,332.376 214.249,333.376 214,334.5C 211.75,333.292 209.583,331.959 207.5,330.5C 206.319,332.135 206.319,333.802 207.5,335.5C 203.624,336.684 200.291,335.684 197.5,332.5C 197.002,333.603 196.669,334.603 196.5,335.5C 193.214,333.549 190.214,331.215 187.5,328.5C 186.495,329.11 186.662,329.776 188,330.5C 188.667,331.833 188.667,333.167 188,334.5C 179.992,328.656 175.159,320.822 173.5,311C 174.444,304.389 175.944,297.889 178,291.5C 179.982,280.319 181.482,268.985 182.5,257.5C 183.803,255.858 185.136,254.191 186.5,252.5 Z"/></g>
<g><path style="opacity:1" fill="#844d22" d="M 188.5,255.5 C 189.29,256.609 189.79,257.942 190,259.5C 192.741,263.285 195.575,263.285 198.5,259.5C 197.952,261.394 196.952,263.06 195.5,264.5C 192.673,267.381 190.506,267.048 189,263.5C 188.503,260.854 188.336,258.187 188.5,255.5 Z"/></g>
<g><path style="opacity:1" fill="#80481d" d="M 259.5,254.5 C 259.577,258.215 259.244,261.881 258.5,265.5C 253.891,266.658 251.224,264.991 250.5,260.5C 252.588,261.939 254.921,262.606 257.5,262.5C 257.802,259.627 258.469,256.961 259.5,254.5 Z"/></g>
<g><path style="opacity:1" fill="#f4dfc0" d="M 302.5,299.5 C 303.451,300.919 303.784,302.585 303.5,304.5C 302.034,305.347 301.2,306.68 301,308.5C 300.68,305.28 301.18,302.28 302.5,299.5 Z"/></g>
<g><path style="opacity:1" fill="#f0e0bb" d="M 145.5,299.5 C 146.833,301.5 146.833,303.5 145.5,305.5C 144.709,303.309 144.709,301.309 145.5,299.5 Z"/></g>
<g><path style="opacity:1" fill="#8acad7" d="M 309.5,276.5 C 309.994,286.624 309.161,296.624 307,306.5C 305.112,311.945 302.445,316.945 299,321.5C 298.536,320.906 298.369,320.239 298.5,319.5C 298.5,318.5 298.5,317.5 298.5,316.5C 300.176,315.817 300.843,314.483 300.5,312.5C 302.515,310.293 303.515,307.626 303.5,304.5C 304.401,303.71 305.068,302.71 305.5,301.5C 306.927,299.852 307.76,297.852 308,295.5C 308.172,288.987 308.672,282.653 309.5,276.5 Z"/></g>
<g><path style="opacity:1" fill="#5e2810" d="M 300.5,312.5 C 300.843,314.483 300.176,315.817 298.5,316.5C 295.288,314.737 292.788,315.404 291,318.5C 290.33,322.835 288.83,326.835 286.5,330.5C 285.675,331.386 284.675,331.719 283.5,331.5C 283.82,324.098 283.82,316.765 283.5,309.5C 284.222,309.918 284.722,310.584 285,311.5C 289.106,299.928 290.606,300.928 289.5,314.5C 290.833,314.5 292.167,314.5 293.5,314.5C 294.63,305.263 295.463,305.263 296,314.5C 297.049,312.893 298.549,312.227 300.5,312.5 Z"/></g>
<g><path style="opacity:1" fill="#501f0e" d="M 163.5,310.5 C 164.396,316.44 165.229,322.44 166,328.5C 166.852,329.571 167.685,330.571 168.5,331.5C 168.5,333.167 168.5,334.833 168.5,336.5C 167.127,336.657 165.793,336.49 164.5,336C 157.125,330.204 151.791,323.037 148.5,314.5C 149.473,315.791 150.473,315.791 151.5,314.5C 152.314,312.234 152.814,309.9 153,307.5C 153.401,310.699 154.234,313.699 155.5,316.5C 156.5,316.5 157.5,316.5 158.5,316.5C 158.334,311.821 158.501,307.155 159,302.5C 160.501,305.286 162.001,307.953 163.5,310.5 Z"/></g>
<g><path style="opacity:1" fill="#3e1209" d="M 163.5,310.5 C 165.322,310.831 166.989,311.498 168.5,312.5C 169.795,316.423 171.628,320.09 174,323.5C 177.924,328.181 182.091,332.515 186.5,336.5C 183.916,336.431 181.916,335.265 180.5,333C 178.527,332.505 176.527,332.338 174.5,332.5C 172.695,331.763 171.029,330.763 169.5,329.5C 168.702,329.957 168.369,330.624 168.5,331.5C 167.685,330.571 166.852,329.571 166,328.5C 165.229,322.44 164.396,316.44 163.5,310.5 Z"/></g>
<g><path style="opacity:1" fill="#45190d" d="M 282.5,305.5 C 282.833,306.833 283.167,308.167 283.5,309.5C 283.82,316.765 283.82,324.098 283.5,331.5C 284.675,331.719 285.675,331.386 286.5,330.5C 288.83,326.835 290.33,322.835 291,318.5C 292.788,315.404 295.288,314.737 298.5,316.5C 298.5,317.5 298.5,318.5 298.5,319.5C 296.123,321.228 294.456,323.561 293.5,326.5C 289.881,330.104 285.881,333.438 281.5,336.5C 278.915,335.927 277.915,334.261 278.5,331.5C 278.44,330.957 278.107,330.624 277.5,330.5C 273.06,331.73 268.727,333.064 264.5,334.5C 268.88,329.447 273.046,324.114 277,318.5C 279.051,314.739 280.218,310.739 280.5,306.5C 281.167,306.167 281.833,305.833 282.5,305.5 Z"/></g>
<g><path style="opacity:1" fill="#e5ddda" d="M 278.5,331.5 C 273.649,332.669 268.983,334.336 264.5,336.5C 264.5,335.833 264.5,335.167 264.5,334.5C 268.727,333.064 273.06,331.73 277.5,330.5C 278.107,330.624 278.44,330.957 278.5,331.5 Z"/></g>
<g><path style="opacity:1" fill="#a0bed3" d="M 174.5,332.5 C 172,333.855 170.333,336.022 169.5,339C 167.926,339.699 166.593,339.365 165.5,338C 166.737,337.768 167.737,337.268 168.5,336.5C 168.5,334.833 168.5,333.167 168.5,331.5C 168.369,330.624 168.702,329.957 169.5,329.5C 171.029,330.763 172.695,331.763 174.5,332.5 Z"/></g>
<g><path style="opacity:1" fill="#b7915f" d="M 181.5,257.5 C 181.833,257.5 182.167,257.5 182.5,257.5C 181.482,268.985 179.982,280.319 178,291.5C 175.944,297.889 174.444,304.389 173.5,311C 175.159,320.822 179.992,328.656 188,334.5C 188.667,333.167 188.667,331.833 188,330.5C 186.662,329.776 186.495,329.11 187.5,328.5C 190.214,331.215 193.214,333.549 196.5,335.5C 196.669,334.603 197.002,333.603 197.5,332.5C 200.291,335.684 203.624,336.684 207.5,335.5C 206.319,333.802 206.319,332.135 207.5,330.5C 209.583,331.959 211.75,333.292 214,334.5C 214.249,333.376 214.749,332.376 215.5,331.5C 217.174,334.254 218.841,334.587 220.5,332.5C 221.328,333.415 222.328,334.081 223.5,334.5C 224.955,333.61 226.289,333.61 227.5,334.5C 228.167,333.5 228.833,332.5 229.5,331.5C 230.192,332.025 230.692,332.692 231,333.5C 232.316,330.972 233.483,330.972 234.5,333.5C 237.276,332.911 239.61,331.578 241.5,329.5C 241.833,329.833 242.167,330.167 242.5,330.5C 240.914,332.173 240.247,334.173 240.5,336.5C 243.89,336.223 247.057,335.223 250,333.5C 250.333,334.5 250.667,335.5 251,336.5C 253.279,334.837 255.613,333.17 258,331.5C 258.249,332.624 258.749,333.624 259.5,334.5C 269.099,327.964 273.932,318.964 274,307.5C 270.161,295.467 268.161,283.134 268,270.5C 265.983,266.406 264.817,262.072 264.5,257.5C 267.107,260.419 268.774,263.752 269.5,267.5C 270.535,281.402 274.202,294.402 280.5,306.5C 280.218,310.739 279.051,314.739 277,318.5C 273.046,324.114 268.88,329.447 264.5,334.5C 259.595,336.189 254.929,338.355 250.5,341C 246.627,341.27 242.794,341.77 239,342.5C 237.217,341.047 235.217,340.047 233,339.5C 229.849,340.246 226.683,340.913 223.5,341.5C 220.317,340.913 217.151,340.246 214,339.5C 213.167,339.833 212.333,340.167 211.5,340.5C 211.624,341.107 211.957,341.44 212.5,341.5C 212.5,342.167 212.167,342.5 211.5,342.5C 206.462,342.163 201.462,341.496 196.5,340.5C 193.355,338.687 190.022,337.354 186.5,336.5C 182.091,332.515 177.924,328.181 174,323.5C 171.628,320.09 169.795,316.423 168.5,312.5C 168.579,311.07 168.246,309.736 167.5,308.5C 173.826,294.847 177.493,280.514 178.5,265.5C 180.38,263.245 181.38,260.578 181.5,257.5 Z"/></g>
<g><path style="opacity:1" fill="#a67945" d="M 218.5,319.5 C 218.897,318.475 219.563,318.308 220.5,319C 222.611,323.304 224.945,323.471 227.5,319.5C 227.977,322.241 226.977,324.574 224.5,326.5C 221.792,324.734 219.792,322.401 218.5,319.5 Z"/></g>
<g><path style="opacity:1" fill="#a57945" d="M 238.5,314.5 C 239.339,315.641 240.006,316.974 240.5,318.5C 241.333,318.833 242.167,319.167 243,319.5C 244.909,318.844 246.742,318.344 248.5,318C 246.833,320 245.167,322 243.5,324C 242.207,324.49 240.873,324.657 239.5,324.5C 238.793,321.214 238.46,317.881 238.5,314.5 Z"/></g>
<g><path style="opacity:1" fill="#aa7f49" d="M 208.5,314.5 C 209.59,317.681 209.59,321.015 208.5,324.5C 204.439,323.799 201.439,321.465 199.5,317.5C 200.574,316.92 201.574,317.42 202.5,319C 206.348,319.987 208.348,318.487 208.5,314.5 Z"/></g>
<g><path style="opacity:1" fill="#aa804b" d="M 264.5,311.5 C 265.91,316.507 263.91,319.173 258.5,319.5C 257.833,317.181 257.666,314.847 258,312.5C 260.506,316.251 262.672,315.917 264.5,311.5 Z"/></g>
<g><path style="opacity:1" fill="#a8804b" d="M 181.5,309.5 C 183.952,315.697 187.118,316.364 191,311.5C 191.21,314.269 190.377,316.769 188.5,319C 187.216,319.684 186.049,319.517 185,318.5C 182.732,315.915 181.566,312.915 181.5,309.5 Z"/></g>
<g><path style="opacity:1" fill="#a37743" d="M 219.5,304.5 C 221.048,304.821 221.715,305.821 221.5,307.5C 224.325,307.838 226.492,306.838 228,304.5C 228.667,305.5 228.667,306.5 228,307.5C 227.101,309.327 225.767,310.66 224,311.5C 221.516,309.882 220.016,307.548 219.5,304.5 Z"/></g>
<g><path style="opacity:1" fill="#aa7f4c" d="M 206.5,298.5 C 207.629,300.628 207.796,302.961 207,305.5C 203.958,308.361 201.792,307.694 200.5,303.5C 202.078,302.702 203.744,302.202 205.5,302C 206.337,300.989 206.67,299.822 206.5,298.5 Z"/></g>
<g><path style="opacity:1" fill="#ae844e" d="M 248.5,298.5 C 249.239,298.369 249.906,298.536 250.5,299C 248.831,303.975 245.498,306.808 240.5,307.5C 240.336,304.813 240.503,302.146 241,299.5C 244.231,303.692 246.731,303.358 248.5,298.5 Z"/></g>
<g><path style="opacity:1" fill="#a47944" d="M 184.5,294.5 C 186.048,294.821 186.715,295.821 186.5,297.5C 191.118,296.975 192.118,298.308 189.5,301.5C 188.675,302.386 187.675,302.719 186.5,302.5C 185.361,299.996 184.694,297.33 184.5,294.5 Z"/></g>
<g><path style="opacity:1" fill="#9d6837" d="M 214.5,286.5 C 217.316,288.41 220.316,290.077 223.5,291.5C 226.703,291.232 229.37,289.898 231.5,287.5C 232.223,289.164 231.89,290.831 230.5,292.5C 228.442,294.401 226.276,296.068 224,297.5C 219.267,295.262 216.101,291.595 214.5,286.5 Z"/></g>
<g><path style="opacity:1" fill="#af834e" d="M 248.5,280.5 C 249.376,280.369 250.043,280.702 250.5,281.5C 249.462,284.469 247.962,287.136 246,289.5C 243.697,287.662 243.031,285.328 244,282.5C 246.471,284.858 247.971,284.192 248.5,280.5 Z"/></g>
<g><path style="opacity:1" fill="#a9804b" d="M 204.5,280.5 C 205.376,280.369 206.043,280.702 206.5,281.5C 206.007,284.478 204.507,286.811 202,288.5C 198.742,287.446 197.908,285.446 199.5,282.5C 202.055,285.025 203.722,284.359 204.5,280.5 Z"/></g>
<g><path style="opacity:1" fill="#a0743f" d="M 255.5,277.5 C 257.068,279.931 258.568,279.931 260,277.5C 260.494,279.134 260.66,280.801 260.5,282.5C 257.5,282.167 255.833,280.5 255.5,277.5 Z"/></g>
<g><path style="opacity:1" fill="#7d461b" d="M 203.5,260.5 C 205.584,262.849 207.584,265.349 209.5,268C 211.859,267.129 213.526,265.296 214.5,262.5C 216.217,263.668 216.884,265.335 216.5,267.5C 215.883,267.389 215.383,267.056 215,266.5C 213.596,270.279 211.096,271.279 207.5,269.5C 204.279,267.387 202.945,264.387 203.5,260.5 Z"/></g>
<g><path style="opacity:1" fill="#7d4419" d="M 243.5,262.5 C 243.657,263.873 243.49,265.207 243,266.5C 239.522,271.719 236.189,271.719 233,266.5C 232.163,268.844 230.829,270.844 229,272.5C 228.586,272.043 228.086,271.709 227.5,271.5C 226.532,272.489 225.365,273.156 224,273.5C 219.571,273.674 217.071,271.674 216.5,267.5C 217.75,267.423 218.583,266.756 219,265.5C 220,266.5 221,267.5 222,268.5C 223.558,267.655 224.558,268.321 225,270.5C 226,268.833 227,267.167 228,265.5C 228.249,266.624 228.749,267.624 229.5,268.5C 231.297,266.869 232.464,264.869 233,262.5C 233.946,264.942 235.446,266.942 237.5,268.5C 239.522,266.391 241.522,264.391 243.5,262.5 Z"/></g>
<g><path style="opacity:1" fill="#8ec3d3" d="M 258.5,343.5 C 257.972,342.153 257.805,340.819 258,339.5C 259.993,338.086 262.16,337.086 264.5,336.5C 268.983,334.336 273.649,332.669 278.5,331.5C 277.915,334.261 278.915,335.927 281.5,336.5C 285.881,333.438 289.881,330.104 293.5,326.5C 299.459,321.076 299.959,321.742 295,328.5C 291.799,332.036 288.299,335.203 284.5,338C 282.833,338.667 281.167,338.667 279.5,338C 275.557,333.716 271.224,333.382 266.5,337C 263.238,339.592 260.738,342.759 259,346.5C 258.517,345.552 258.351,344.552 258.5,343.5 Z"/></g>
<g><path style="opacity:1" fill="#541d0e" d="M 186.5,336.5 C 190.022,337.354 193.355,338.687 196.5,340.5C 201.462,341.496 206.462,342.163 211.5,342.5C 211.5,343.167 211.5,343.833 211.5,344.5C 210.5,344.5 209.5,344.5 208.5,344.5C 208.216,346.415 208.549,348.081 209.5,349.5C 210.933,351.558 211.6,353.892 211.5,356.5C 209.917,354.337 208.584,352.004 207.5,349.5C 207.5,347.833 207.5,346.167 207.5,344.5C 201.942,344.057 196.609,344.724 191.5,346.5C 191.601,342.126 189.934,338.793 186.5,336.5 Z"/></g>
<g><path style="opacity:1" fill="#53200f" d="M 264.5,334.5 C 264.5,335.167 264.5,335.833 264.5,336.5C 262.16,337.086 259.993,338.086 258,339.5C 257.805,340.819 257.972,342.153 258.5,343.5C 257.609,344.11 256.609,344.443 255.5,344.5C 250.5,344.5 245.5,344.5 240.5,344.5C 240.5,345.5 240.5,346.5 240.5,347.5C 239.596,346.791 239.263,345.791 239.5,344.5C 238.167,344.5 236.833,344.5 235.5,344.5C 235.5,343.5 235.5,342.5 235.5,341.5C 227.837,342.778 220.171,342.778 212.5,341.5C 211.957,341.44 211.624,341.107 211.5,340.5C 212.333,340.167 213.167,339.833 214,339.5C 217.151,340.246 220.317,340.913 223.5,341.5C 226.683,340.913 229.849,340.246 233,339.5C 235.217,340.047 237.217,341.047 239,342.5C 242.794,341.77 246.627,341.27 250.5,341C 254.929,338.355 259.595,336.189 264.5,334.5 Z"/></g>
<g><path style="opacity:1" fill="#7dcdda" d="M 209.5,349.5 C 208.549,348.081 208.216,346.415 208.5,344.5C 209.5,344.5 210.5,344.5 211.5,344.5C 218.754,343.37 226.087,343.204 233.5,344C 226.833,344.333 220.167,344.667 213.5,345C 211.391,345.907 210.058,347.407 209.5,349.5 Z"/></g>
<g><path style="opacity:1" fill="#c3580d" d="M 207.5,349.5 C 205.549,349.227 204.049,349.893 203,351.5C 202.502,354.817 202.335,358.15 202.5,361.5C 201.698,360.048 201.198,358.382 201,356.5C 199.659,359.022 198.826,361.689 198.5,364.5C 197.24,366.367 195.573,367.7 193.5,368.5C 197.171,363.141 198.838,357.141 198.5,350.5C 196.194,350.993 193.861,351.326 191.5,351.5C 189.693,353.748 188.026,356.081 186.5,358.5C 186.5,357.167 186.5,355.833 186.5,354.5C 185.167,354.5 183.833,354.5 182.5,354.5C 184.885,352.737 187.552,351.237 190.5,350C 191.337,348.989 191.67,347.822 191.5,346.5C 196.609,344.724 201.942,344.057 207.5,344.5C 207.5,346.167 207.5,347.833 207.5,349.5 Z"/></g>
<g><path style="opacity:1" fill="#ab470d" d="M 255.5,344.5 C 257.194,347.528 259.528,349.861 262.5,351.5C 261.167,351.5 259.833,351.5 258.5,351.5C 258.366,353.292 258.699,354.958 259.5,356.5C 259.167,356.5 258.833,356.5 258.5,356.5C 258.167,356.5 257.833,356.5 257.5,356.5C 256.371,352.196 253.871,348.862 250,346.5C 247.196,348.399 246.03,351.066 246.5,354.5C 246.802,357.059 246.468,359.393 245.5,361.5C 245.665,358.15 245.498,354.817 245,351.5C 243.951,349.893 242.451,349.227 240.5,349.5C 240.5,348.833 240.5,348.167 240.5,347.5C 240.5,346.5 240.5,345.5 240.5,344.5C 245.5,344.5 250.5,344.5 255.5,344.5 Z"/></g>
<g><path style="opacity:1" fill="#d36a0d" d="M 257.5,356.5 C 255.107,355.647 253.774,353.981 253.5,351.5C 252.5,351.5 251.5,351.5 250.5,351.5C 249.89,357.506 250.89,363.173 253.5,368.5C 252.833,368.5 252.167,368.5 251.5,368.5C 250.728,367.306 249.728,366.306 248.5,365.5C 248.5,364.833 248.5,364.167 248.5,363.5C 248.932,360.123 248.265,357.123 246.5,354.5C 246.03,351.066 247.196,348.399 250,346.5C 253.871,348.862 256.371,352.196 257.5,356.5 Z"/></g>
<g><path style="opacity:1" fill="#db7913" d="M 207.5,349.5 C 208.584,352.004 209.917,354.337 211.5,356.5C 211.5,358.833 211.5,361.167 211.5,363.5C 210.833,364.5 210.167,365.5 209.5,366.5C 209.5,367.833 208.833,368.5 207.5,368.5C 206.5,368.167 205.833,367.5 205.5,366.5C 204.248,364.999 203.248,363.332 202.5,361.5C 202.335,358.15 202.502,354.817 203,351.5C 204.049,349.893 205.549,349.227 207.5,349.5 Z"/></g>
<g><path style="opacity:1" fill="#4a2314" d="M 262.5,351.5 C 263.5,351.5 264.5,351.5 265.5,351.5C 265.5,352.5 265.5,353.5 265.5,354.5C 264.167,353.833 263.167,352.833 262.5,351.5 Z"/></g>
<g><path style="opacity:1" fill="#cc6c17" d="M 240.5,349.5 C 242.451,349.227 243.951,349.893 245,351.5C 245.498,354.817 245.665,358.15 245.5,361.5C 244.248,363.001 243.248,364.668 242.5,366.5C 242.167,367.5 241.5,368.167 240.5,368.5C 239.833,368.5 239.167,368.5 238.5,368.5C 237.778,368.082 237.278,367.416 237,366.5C 235.578,360.206 236.744,354.539 240.5,349.5 Z"/></g>
<g><path style="opacity:1" fill="#fab511" d="M 257.5,356.5 C 257.833,356.5 258.167,356.5 258.5,356.5C 258.5,359.167 258.5,361.833 258.5,364.5C 257.916,366.743 256.75,368.743 255,370.5C 254.283,369.956 253.783,369.289 253.5,368.5C 250.89,363.173 249.89,357.506 250.5,351.5C 251.5,351.5 252.5,351.5 253.5,351.5C 253.774,353.981 255.107,355.647 257.5,356.5 Z"/></g>
<g><path style="opacity:1" fill="#ee9e14" d="M 262.5,351.5 C 263.167,352.833 264.167,353.833 265.5,354.5C 268.917,356.847 270.251,360.18 269.5,364.5C 268.167,364.5 266.833,364.5 265.5,364.5C 265.5,363.5 265.5,362.5 265.5,361.5C 263.833,361.5 262.167,361.5 260.5,361.5C 260.634,359.708 260.301,358.042 259.5,356.5C 258.699,354.958 258.366,353.292 258.5,351.5C 259.833,351.5 261.167,351.5 262.5,351.5 Z"/></g>
<g><path style="opacity:1" fill="#f8ae10" d="M 193.5,368.5 C 193.44,369.043 193.107,369.376 192.5,369.5C 191.712,368.23 190.712,367.23 189.5,366.5C 189.5,366.167 189.5,365.833 189.5,365.5C 189.222,360.661 189.888,355.994 191.5,351.5C 193.861,351.326 196.194,350.993 198.5,350.5C 198.838,357.141 197.171,363.141 193.5,368.5 Z"/></g>
<g><path style="opacity:1" fill="#fcbb0e" d="M 240.5,352.5 C 243.121,352.477 244.455,353.811 244.5,356.5C 243.059,359.927 241.559,363.261 240,366.5C 238.092,365.182 237.258,363.348 237.5,361C 237.624,357.791 238.624,354.958 240.5,352.5 Z"/></g>
<g><path style="opacity:1" fill="#79270a" d="M 191.5,351.5 C 189.888,355.994 189.222,360.661 189.5,365.5C 187.185,363.203 184.518,362.869 181.5,364.5C 182.635,362.787 184.302,362.12 186.5,362.5C 186.5,361.167 186.5,359.833 186.5,358.5C 188.026,356.081 189.693,353.748 191.5,351.5 Z"/></g>
<g><path style="opacity:1" fill="#bfaea7" d="M 211.5,356.5 C 212.167,356.5 212.833,356.5 213.5,356.5C 213.656,360.764 212.989,364.764 211.5,368.5C 211.5,366.833 211.5,365.167 211.5,363.5C 211.5,361.167 211.5,358.833 211.5,356.5 Z"/></g>
<g><path style="opacity:1" fill="#5a2010" d="M 258.5,356.5 C 258.833,356.5 259.167,356.5 259.5,356.5C 260.301,358.042 260.634,359.708 260.5,361.5C 262.167,361.5 263.833,361.5 265.5,361.5C 265.5,362.5 265.5,363.5 265.5,364.5C 264.5,364.5 263.5,364.5 262.5,364.5C 261.295,363.314 259.961,363.314 258.5,364.5C 258.5,361.833 258.5,359.167 258.5,356.5 Z"/></g>
<g><path style="opacity:1" fill="#f7a819" d="M 182.5,354.5 C 183.833,354.5 185.167,354.5 186.5,354.5C 186.5,355.833 186.5,357.167 186.5,358.5C 183.936,359.866 181.436,361.533 179,363.5C 178.506,361.866 178.34,360.199 178.5,358.5C 179.5,356.833 180.833,355.5 182.5,354.5 Z"/></g>
<g><path style="opacity:1" fill="#9f4e13" d="M 178.5,358.5 C 178.34,360.199 178.506,361.866 179,363.5C 181.436,361.533 183.936,359.866 186.5,358.5C 186.5,359.833 186.5,361.167 186.5,362.5C 184.302,362.12 182.635,362.787 181.5,364.5C 181.5,365.167 181.5,365.833 181.5,366.5C 180.833,366.5 180.167,366.5 179.5,366.5C 177.416,364.007 177.083,361.34 178.5,358.5 Z"/></g>
<g><path style="opacity:1" fill="#fdb70c" d="M 209.5,366.5 C 207.583,364.704 205.75,362.704 204,360.5C 203.105,357.534 203.605,354.867 205.5,352.5C 206.853,353.685 208.02,355.019 209,356.5C 209.498,359.817 209.665,363.15 209.5,366.5 Z"/></g>
<g><path style="opacity:1" fill="#622711" d="M 246.5,354.5 C 248.265,357.123 248.932,360.123 248.5,363.5C 246.5,364.5 244.5,365.5 242.5,366.5C 243.248,364.668 244.248,363.001 245.5,361.5C 246.468,359.393 246.802,357.059 246.5,354.5 Z"/></g>
<g><path style="opacity:1" fill="#683415" d="M 265.5,354.5 C 267.911,354.137 269.411,355.137 270,357.5C 270.498,360.817 270.665,364.15 270.5,367.5C 270.167,367.5 269.833,367.5 269.5,367.5C 268.128,366.488 266.795,365.488 265.5,364.5C 266.833,364.5 268.167,364.5 269.5,364.5C 270.251,360.18 268.917,356.847 265.5,354.5 Z"/></g>
<g><path style="opacity:1" fill="#5f210d" d="M 202.5,361.5 C 203.248,363.332 204.248,364.999 205.5,366.5C 203.938,366.267 202.605,365.6 201.5,364.5C 200.798,363.884 199.798,363.884 198.5,364.5C 198.826,361.689 199.659,359.022 201,356.5C 201.198,358.382 201.698,360.048 202.5,361.5 Z"/></g>
<g><path style="opacity:1" fill="#63c9dc" d="M 179.5,366.5 C 180.167,366.5 180.833,366.5 181.5,366.5C 182.239,366.369 182.906,366.536 183.5,367C 182.335,368.084 181.002,368.917 179.5,369.5C 178.438,368.575 178.438,367.575 179.5,366.5 Z"/></g>
<g><path style="opacity:1" fill="#81cbd9" d="M 248.5,363.5 C 248.5,364.167 248.5,364.833 248.5,365.5C 245.777,367.204 243.444,369.371 241.5,372C 240.251,372.74 239.251,372.573 238.5,371.5C 239.401,370.71 240.068,369.71 240.5,368.5C 241.5,368.167 242.167,367.5 242.5,366.5C 244.5,365.5 246.5,364.5 248.5,363.5 Z"/></g>
<g><path style="opacity:1" fill="#8bd5e3" d="M 269.5,367.5 C 269.833,367.5 270.167,367.5 270.5,367.5C 272.011,365.524 272.844,363.191 273,360.5C 273.667,363.5 273.667,366.5 273,369.5C 271.989,370.337 270.822,370.67 269.5,370.5C 269.5,369.5 269.5,368.5 269.5,367.5 Z"/></g>
<g><path style="opacity:1" fill="#58361f" d="M 211.5,363.5 C 211.5,365.167 211.5,366.833 211.5,368.5C 210.094,368.973 209.427,369.973 209.5,371.5C 208.094,371.027 207.427,370.027 207.5,368.5C 208.833,368.5 209.5,367.833 209.5,366.5C 210.167,365.5 210.833,364.5 211.5,363.5 Z"/></g>
<g><path style="opacity:1" fill="#3c2015" d="M 238.5,368.5 C 239.167,368.5 239.833,368.5 240.5,368.5C 240.068,369.71 239.401,370.71 238.5,371.5C 238.5,370.5 238.5,369.5 238.5,368.5 Z"/></g>
<g><path style="opacity:1" fill="#572c14" d="M 258.5,364.5 C 258.702,366.989 258.202,369.323 257,371.5C 255.855,372.684 254.688,372.684 253.5,371.5C 252.833,370.5 252.167,369.5 251.5,368.5C 252.167,368.5 252.833,368.5 253.5,368.5C 253.783,369.289 254.283,369.956 255,370.5C 256.75,368.743 257.916,366.743 258.5,364.5 Z"/></g>
<g><path style="opacity:1" fill="#6a3a1e" d="M 198.5,364.5 C 197.289,368.377 194.956,371.377 191.5,373.5C 190.833,371.167 190.167,368.833 189.5,366.5C 190.712,367.23 191.712,368.23 192.5,369.5C 193.107,369.376 193.44,369.043 193.5,368.5C 195.573,367.7 197.24,366.367 198.5,364.5 Z"/></g>
<g><path style="opacity:1" fill="#7ccddb" d="M 209.5,371.5 C 209.427,369.973 210.094,368.973 211.5,368.5C 212.989,364.764 213.656,360.764 213.5,356.5C 213.369,355.761 213.536,355.094 214,354.5C 214.596,359.88 214.262,365.213 213,370.5C 212.076,372.495 210.91,372.828 209.5,371.5 Z"/></g>
<g><path style="opacity:1" fill="#84cbd9" d="M 201.5,364.5 C 201.414,365.496 201.748,366.329 202.5,367C 201.551,367.617 200.718,367.451 200,366.5C 199.113,371.939 196.28,374.273 191.5,373.5C 194.956,371.377 197.289,368.377 198.5,364.5C 199.798,363.884 200.798,363.884 201.5,364.5 Z"/></g>
<g><path style="opacity:1" fill="#afd5dc" d="M 262.5,364.5 C 263.658,365.95 263.158,366.95 261,367.5C 260.443,369.615 259.609,371.615 258.5,373.5C 256.276,374.78 254.276,374.447 252.5,372.5C 252.624,371.893 252.957,371.56 253.5,371.5C 254.688,372.684 255.855,372.684 257,371.5C 258.202,369.323 258.702,366.989 258.5,364.5C 259.961,363.314 261.295,363.314 262.5,364.5 Z"/></g>
</svg>
